<?xml version="1.0" encoding="UTF-8" ?>
<!DOCTYPE svg PUBLIC "-//W3C//DTD SVG 1.1//EN" "http://www.w3.org/Graphics/SVG/1.1/DTD/svg11.dtd">
<svg width="347pt" height="263pt" viewBox="0 0 347 263" version="1.1" xmlns="http://www.w3.org/2000/svg">
<g id="#ffffffff">
</g>
<g id="#1f1a17ff">
<path fill="#1f1a17" opacity="1.00" d=" M 131.94 6.26 C 151.93 4.71 171.99 3.36 192.04 4.22 C 209.74 4.98 227.60 5.70 244.91 9.79 C 248.38 10.41 252.07 10.13 255.13 8.26 C 258.00 6.56 261.17 8.42 264.11 8.97 C 277.87 12.65 291.49 16.93 304.74 22.16 C 307.67 23.18 310.51 24.46 313.11 26.17 C 310.45 27.12 307.75 27.96 305.06 28.80 C 313.74 35.13 322.06 42.75 326.35 52.82 C 330.27 61.66 331.59 71.35 332.50 80.90 C 333.82 95.68 333.61 110.67 331.03 125.31 C 333.98 128.52 336.10 132.50 336.81 136.82 C 337.49 156.94 340.36 176.95 341.74 197.04 C 341.72 200.08 340.08 202.90 340.38 205.98 C 340.28 214.13 334.05 220.30 328.51 225.51 C 324.31 229.54 318.63 231.58 314.33 235.37 C 313.75 236.94 312.16 236.18 310.95 236.13 C 310.08 236.96 309.11 237.62 308.02 238.11 C 285.47 248.81 260.92 255.31 236.03 257.16 C 203.15 260.27 170.07 262.23 137.03 260.83 C 110.63 259.83 84.50 255.02 59.13 247.76 C 43.04 242.70 27.85 234.80 14.31 224.74 C 11.16 222.22 7.87 219.76 5.45 216.50 C 4.02 214.63 4.65 212.12 4.46 209.95 C 5.06 190.99 5.96 172.04 6.83 153.09 C 7.20 149.40 5.92 145.70 6.81 142.05 C 7.81 137.24 10.33 132.91 13.02 128.87 C 9.74 113.16 10.43 96.97 10.58 81.03 C 11.25 72.21 10.60 62.84 14.72 54.73 C 16.45 51.06 19.06 47.86 22.11 45.20 C 25.65 41.76 28.75 37.89 32.38 34.53 C 32.76 31.68 33.50 28.89 34.26 26.12 C 51.54 18.68 69.68 13.27 88.12 9.57 C 89.75 9.28 91.39 8.85 93.07 8.98 C 95.71 9.70 98.17 11.40 100.99 11.23 C 111.33 9.71 121.46 6.74 131.94 6.26 M 125.15 8.65 C 117.08 9.90 109.14 11.89 101.05 12.99 C 97.12 13.61 93.86 9.78 89.94 11.02 C 72.78 14.44 55.84 19.21 39.66 25.91 C 42.30 26.65 44.79 27.75 46.83 29.62 C 38.21 31.84 30.96 37.63 25.72 44.70 C 20.91 48.81 21.12 56.05 23.51 61.41 C 27.00 68.44 33.54 73.24 40.12 77.16 C 38.42 78.24 36.62 79.13 34.79 79.96 C 49.80 85.97 65.19 91.30 81.08 94.44 C 85.75 95.77 90.34 93.01 95.05 93.93 C 115.88 97.21 136.83 100.93 158.00 100.50 C 178.20 99.95 198.45 99.69 218.54 97.33 C 226.39 96.53 233.94 93.62 241.89 93.76 C 245.97 93.73 249.82 96.43 253.90 94.88 C 270.73 90.91 287.24 85.59 303.44 79.59 C 301.03 78.60 298.63 77.59 296.20 76.65 C 304.12 72.53 312.19 67.73 317.14 60.04 C 319.95 55.53 321.58 49.41 318.63 44.56 C 314.40 37.56 307.45 32.79 300.80 28.30 C 303.41 27.38 306.06 26.57 308.68 25.68 C 292.24 18.91 275.21 13.58 257.96 9.30 C 253.63 11.31 248.85 12.56 244.07 11.45 C 235.18 9.16 226.02 8.25 216.90 7.39 C 200.67 6.11 184.37 5.45 168.09 5.83 C 153.76 6.41 139.43 7.29 125.15 8.65 M 36.34 27.48 C 35.03 29.28 34.78 31.58 34.13 33.65 C 37.02 31.85 40.00 30.21 43.03 28.66 C 40.81 28.22 38.61 27.59 36.34 27.48 M 300.60 76.44 C 302.42 77.21 304.23 78.00 306.03 78.83 C 315.05 73.10 323.94 63.38 321.70 51.82 C 320.77 63.64 310.06 71.13 300.60 76.44 M 20.33 54.93 C 20.41 58.45 20.28 62.08 21.54 65.44 C 23.56 70.96 27.62 75.52 32.29 78.98 C 33.59 78.35 34.89 77.72 36.18 77.08 C 28.63 71.89 20.39 64.93 20.33 54.93 M 32.43 81.19 C 31.77 82.22 31.12 83.25 30.48 84.29 C 46.59 91.64 63.78 96.20 80.84 100.77 C 81.36 99.27 81.95 97.80 82.61 96.36 C 65.27 93.67 48.81 87.21 32.43 81.19 M 251.74 97.12 C 252.30 98.10 252.87 99.07 253.44 100.05 C 261.79 98.65 269.94 96.27 278.13 94.16 C 287.83 91.36 297.65 88.75 306.85 84.55 C 306.52 83.35 306.17 82.15 305.82 80.96 C 287.96 86.87 270.21 93.39 251.74 97.12 M 29.65 86.08 C 26.08 97.33 25.69 109.26 25.51 120.96 C 30.45 123.42 35.46 125.77 40.71 127.53 C 41.23 124.36 42.04 120.78 44.90 118.86 C 47.87 116.61 52.22 117.86 54.56 120.45 C 58.03 123.87 59.15 128.89 59.15 133.60 C 66.44 135.70 73.74 137.86 81.26 138.97 C 81.27 126.89 81.21 114.82 81.28 102.75 C 63.78 98.17 46.28 93.30 29.65 86.08 M 253.97 101.82 C 254.01 114.14 254.02 126.45 253.98 138.77 C 260.04 138.39 266.10 137.37 271.73 135.02 C 271.96 132.37 272.16 129.73 272.31 127.08 C 279.79 124.31 287.41 121.94 294.87 119.15 C 296.43 118.48 298.11 118.30 299.79 118.20 C 299.55 121.14 299.42 124.09 299.50 127.05 C 303.40 125.44 307.23 123.67 310.93 121.65 C 311.27 109.79 310.24 97.88 307.63 86.29 C 290.28 93.17 272.13 97.68 253.97 101.82 M 83.12 99.17 C 82.90 112.40 82.97 125.65 83.10 138.89 C 84.29 138.75 85.49 138.61 86.68 138.47 C 86.93 130.30 86.27 122.14 86.50 113.97 C 86.72 109.96 85.79 105.84 87.07 101.95 C 88.60 101.68 90.14 101.43 91.68 101.22 C 91.76 99.31 91.88 97.40 91.98 95.49 C 88.89 96.01 84.74 95.92 83.12 99.17 M 93.79 95.55 C 93.65 97.56 93.51 99.56 93.40 101.57 C 117.19 104.24 141.07 106.26 164.98 107.41 C 180.01 107.19 195.01 106.10 209.99 104.89 C 220.71 103.84 231.49 102.82 241.98 100.28 C 242.00 98.66 242.01 97.05 242.04 95.44 C 233.55 95.57 225.49 98.60 217.09 99.33 C 194.81 101.58 172.39 102.06 150.01 102.25 C 131.12 101.70 112.43 98.51 93.79 95.55 M 244.08 95.55 C 244.03 97.10 243.99 98.64 243.95 100.19 C 246.38 101.31 249.21 102.94 249.12 106.03 C 249.62 116.93 249.52 127.85 249.47 138.76 C 250.41 138.72 251.37 138.68 252.32 138.65 C 252.06 126.38 252.44 114.09 252.14 101.82 C 251.25 98.08 247.41 96.49 244.08 95.55 M 46.25 120.11 C 42.16 123.15 41.92 129.19 43.49 133.67 C 44.67 137.60 48.29 142.44 52.91 141.28 C 58.22 138.36 58.10 130.89 56.01 125.97 C 54.46 122.38 50.54 117.77 46.25 120.11 M 274.10 128.30 C 273.69 133.74 272.82 139.24 273.50 144.69 C 273.84 144.96 274.51 145.51 274.84 145.78 C 282.53 142.99 290.09 139.81 297.76 136.94 C 297.75 131.31 297.74 125.68 297.71 120.06 C 289.90 122.95 282.01 125.66 274.10 128.30 M 25.55 123.00 C 26.77 134.69 28.19 146.38 30.09 157.97 C 46.85 164.37 63.67 170.83 81.02 175.49 C 81.54 163.91 81.11 152.30 81.26 140.71 C 73.66 139.76 66.34 137.48 58.98 135.46 C 58.27 139.70 54.81 144.31 49.98 143.15 C 43.89 141.67 41.36 134.93 40.71 129.33 C 35.44 127.78 30.45 125.45 25.55 123.00 M 299.48 128.99 C 299.52 132.16 299.72 135.38 299.03 138.50 C 291.62 141.22 284.27 144.12 276.94 147.04 C 274.93 148.21 271.92 147.07 271.63 144.65 C 271.34 142.17 271.53 139.67 271.53 137.19 C 265.89 139.28 259.93 140.04 253.98 140.61 C 254.04 152.11 253.94 163.61 254.03 175.10 C 272.62 171.46 291.04 166.13 307.96 157.49 C 309.88 146.33 310.99 135.03 311.02 123.70 C 307.30 125.74 303.40 127.40 299.48 128.99 M 327.95 141.82 C 324.95 149.40 317.31 153.62 310.84 157.90 C 309.01 158.96 309.64 161.98 307.36 162.57 C 291.50 170.66 274.30 175.86 256.89 179.39 C 237.10 182.84 217.08 184.79 197.05 186.18 C 163.99 188.04 130.57 188.21 97.85 182.48 C 90.93 181.24 84.13 179.39 77.15 178.53 C 62.74 175.54 49.06 169.95 35.43 164.55 C 33.26 163.56 30.42 163.10 29.46 160.58 C 27.20 155.92 21.85 154.13 18.83 150.07 C 14.52 144.56 16.47 136.95 13.71 130.93 C 10.46 136.74 5.96 143.90 9.53 150.59 C 16.71 162.94 29.81 170.26 42.56 175.73 C 61.80 183.71 82.52 187.19 103.09 189.64 C 124.96 192.26 146.95 194.20 168.99 194.35 C 194.86 194.68 220.73 192.14 246.21 187.67 C 267.22 184.18 288.12 178.84 307.33 169.49 C 315.49 165.24 323.66 160.52 329.90 153.62 C 332.92 150.47 335.26 146.41 335.25 141.94 C 335.82 136.62 333.51 131.57 330.60 127.28 C 327.34 131.60 330.16 137.14 327.95 141.82 M 325.67 136.63 C 321.96 142.83 317.00 148.51 310.53 151.90 C 310.39 153.37 310.20 154.84 310.02 156.31 C 317.85 151.33 327.92 145.22 327.36 134.57 L 328.54 134.56 C 327.01 133.90 326.35 135.59 325.67 136.63 M 17.00 137.85 C 17.53 141.59 17.99 145.56 20.13 148.78 C 22.32 151.39 25.26 153.23 27.79 155.49 C 27.09 153.17 27.78 150.03 25.51 148.47 C 21.96 145.55 19.45 141.68 17.00 137.85 M 83.08 140.86 C 82.75 152.80 83.35 164.77 82.76 176.70 C 86.34 179.54 90.35 176.21 93.99 175.34 C 119.66 179.91 145.76 183.80 171.91 182.05 C 195.76 180.80 219.78 180.23 243.28 175.58 C 243.24 174.76 243.16 173.11 243.13 172.29 C 214.50 175.35 185.77 178.28 156.95 178.27 C 134.18 177.70 111.47 175.32 88.99 171.68 C 86.20 161.46 87.44 150.79 86.81 140.35 C 85.60 140.58 84.12 140.13 83.08 140.86 M 249.71 140.48 C 249.80 150.86 249.78 161.24 249.70 171.61 C 248.13 171.75 246.57 171.90 245.00 172.04 C 245.00 172.84 244.99 174.42 244.98 175.22 C 247.14 175.92 249.44 177.98 251.71 176.58 C 252.59 175.24 252.11 173.51 252.27 172.02 C 252.22 161.50 252.26 150.99 252.23 140.48 C 251.39 140.48 250.55 140.48 249.71 140.48 M 331.59 154.52 C 324.24 162.64 314.55 168.15 304.73 172.74 C 288.57 180.10 271.34 184.87 253.93 188.13 C 228.22 192.94 202.14 195.99 175.96 196.12 C 148.87 196.37 121.81 193.87 94.95 190.40 C 73.33 187.59 51.56 182.90 32.05 172.83 C 22.89 167.84 13.99 161.48 8.45 152.45 C 8.14 170.56 6.57 188.66 6.53 206.77 C 9.02 212.75 14.51 216.70 19.53 220.47 C 31.70 228.60 45.37 234.21 59.20 238.83 C 87.66 247.31 117.41 250.67 147.01 251.64 C 169.32 252.27 191.67 251.55 213.91 249.54 C 235.47 247.54 257.12 244.94 277.92 238.68 C 291.58 234.63 304.76 229.02 317.27 222.22 C 322.98 219.25 329.21 216.60 333.35 211.46 C 336.69 207.33 339.58 202.41 339.98 197.03 C 338.72 180.71 336.85 164.43 335.63 148.10 C 334.59 150.42 333.33 152.66 331.59 154.52 M 298.78 163.86 C 284.74 169.69 270.03 173.80 255.14 176.74 C 254.10 176.97 253.18 177.43 252.36 178.12 C 264.60 176.56 276.49 172.94 288.11 168.89 C 294.91 166.30 301.80 163.75 308.08 160.04 C 304.76 160.69 301.90 162.66 298.78 163.86 M 31.54 160.91 C 42.32 165.58 53.35 169.71 64.52 173.37 C 69.36 174.83 74.22 176.46 79.30 176.76 C 62.95 172.85 47.54 165.89 31.54 160.91 M 89.74 178.94 C 110.16 183.57 131.15 185.09 152.04 185.51 C 184.48 185.92 216.96 183.73 249.03 178.83 C 247.04 178.18 245.09 176.77 242.91 177.39 C 219.64 182.10 195.79 182.50 172.16 183.82 C 149.34 185.33 126.49 182.63 104.00 178.89 C 99.25 178.30 94.13 175.80 89.74 178.94 M 325.84 219.86 C 316.67 224.66 307.54 229.58 297.94 233.48 C 277.89 241.92 256.45 246.50 234.92 249.10 C 196.14 253.80 156.88 255.19 117.95 251.61 C 85.64 248.40 52.81 242.04 24.34 225.70 C 17.57 221.51 10.46 217.03 6.27 210.05 C 6.39 211.92 5.69 214.19 7.19 215.69 C 11.39 220.55 16.69 224.31 21.96 227.92 C 35.50 236.79 50.34 243.81 66.04 247.89 C 76.27 250.33 86.48 252.92 96.85 254.73 C 121.92 259.27 147.50 259.91 172.91 259.41 C 197.73 258.71 222.51 256.87 247.19 254.26 C 274.19 250.35 301.01 241.99 323.87 226.83 C 330.53 221.76 336.99 215.35 338.89 206.89 C 335.63 212.16 331.37 216.91 325.84 219.86 Z" />
<path fill="#1f1a17" opacity="1.00" d=" M 144.55 18.81 C 174.92 16.54 205.78 17.78 235.53 24.61 C 246.80 27.40 258.09 30.93 268.02 37.09 C 273.22 40.55 278.84 45.34 279.24 52.04 C 279.78 58.14 275.52 63.37 270.88 66.77 C 262.06 73.33 251.46 76.91 241.00 79.90 C 218.19 85.82 194.55 88.48 171.00 87.98 C 147.44 88.44 123.75 85.90 100.94 79.89 C 90.65 77.08 80.36 73.47 71.58 67.29 C 67.52 64.22 63.57 60.23 62.62 55.03 C 61.72 49.78 64.54 44.72 68.35 41.31 C 75.59 34.70 84.94 31.13 94.07 27.98 C 110.45 22.86 127.49 20.22 144.55 18.81 M 120.86 23.49 C 107.02 25.96 93.13 29.22 80.42 35.39 C 74.62 38.43 68.63 42.14 65.42 48.06 C 62.92 52.64 64.70 58.31 68.21 61.82 C 73.34 67.09 80.00 70.66 86.81 73.30 C 82.71 70.54 78.16 67.91 75.74 63.40 C 73.29 59.52 74.03 54.32 76.90 50.88 C 82.38 44.11 90.76 40.76 98.72 37.90 C 114.49 32.60 131.06 30.15 147.60 28.85 C 169.73 27.22 192.05 27.81 214.01 31.06 C 226.64 33.05 239.29 35.83 251.03 41.03 C 256.02 43.36 261.02 46.14 264.60 50.42 C 267.25 53.54 268.49 58.08 266.78 61.95 C 264.43 67.65 258.85 70.93 253.68 73.75 C 261.22 70.87 268.86 67.24 274.26 61.07 C 277.46 57.51 278.65 52.13 276.33 47.78 C 272.61 41.39 265.87 37.65 259.44 34.48 C 246.81 28.69 233.15 25.58 219.52 23.26 C 186.90 18.16 153.46 18.25 120.86 23.49 M 151.08 30.12 C 133.02 31.97 114.72 33.96 97.57 40.26 C 91.12 42.73 84.57 45.60 79.57 50.51 C 77.74 52.59 76.12 55.10 75.95 57.93 C 75.99 62.11 79.11 65.33 82.13 67.83 C 89.69 73.57 98.88 76.57 107.91 79.09 C 130.44 84.86 153.83 86.50 177.02 86.07 C 184.76 86.37 192.44 85.29 200.17 84.90 C 215.49 83.25 230.89 80.81 245.40 75.45 C 251.49 72.95 257.71 70.15 262.38 65.38 C 265.21 62.54 266.91 58.01 264.89 54.23 C 262.10 49.01 256.71 45.92 251.61 43.33 C 238.43 37.11 223.95 34.37 209.63 32.23 C 193.53 30.11 177.25 29.38 161.02 29.86 C 157.70 29.99 154.34 29.30 151.08 30.12 Z" />
<path fill="#1f1a17" opacity="1.00" d=" M 151.56 36.83 C 167.37 35.75 183.37 35.66 199.06 38.25 C 208.47 39.78 217.99 41.98 226.39 46.65 C 230.18 48.74 233.94 52.30 233.87 56.95 C 234.09 62.24 229.91 66.32 225.72 68.86 C 218.12 73.22 209.57 75.69 200.98 77.19 C 186.86 79.92 172.39 80.13 158.07 79.39 C 146.05 78.44 133.95 76.62 122.69 72.14 C 118.27 70.34 113.86 68.07 110.67 64.43 C 106.59 60.01 107.25 52.04 112.40 48.70 C 123.80 40.63 138.15 39.05 151.56 36.83 Z" />
<path fill="#1f1a17" opacity="1.00" d=" M 47.50 123.52 C 54.34 121.48 57.69 132.31 53.60 136.61 C 50.94 139.40 46.40 136.96 45.46 133.72 C 44.34 130.46 43.96 125.43 47.50 123.52 Z" />
<path fill="#1f1a17" opacity="1.00" d=" M 275.21 129.43 C 279.42 128.27 283.64 127.14 287.88 126.06 C 290.78 125.22 293.39 127.21 295.66 128.71 C 294.95 131.11 295.41 134.48 292.73 135.75 C 288.96 137.37 284.95 138.36 281.05 139.60 C 278.68 138.48 276.25 137.38 274.32 135.55 C 274.58 133.51 274.86 131.46 275.21 129.43 Z" />
</g>
</svg>
