<?xml version="1.0" encoding="utf-8"?>
<!-- Generator: Adobe Illustrator 21.1.0, SVG Export Plug-In . SVG Version: 6.00 Build 0)  -->
<svg version="1.1" id="Laag_1" xmlns="http://www.w3.org/2000/svg" xmlns:xlink="http://www.w3.org/1999/xlink" x="0px" y="0px"
	 viewBox="0 0 476 476" style="enable-background:new 0 0 476 476;" xml:space="preserve">
<g id="_x23_000000ff">
	<path d="M68.7,154c0.1-9.8-1.2-20.1,3-29.3c110.9,0,221.7,0,332.6,0c4.1,8.9,2.9,18.9,3,28.4c0.1,8-2.7,16.1-8.1,22.1
		c-6.2,7.2-15.7,11-25.2,10.9c-90.7,0-181.3,0-272,0c-7.8,0.1-15.7-2.3-21.7-7.4C73,172.7,68.7,163.4,68.7,154 M83.2,139.1
		c-2.4,0.9-3.3,4.3-1.6,6.2c1.3,1.6,3.5,1.4,5.3,1.5c99.7-0.1,199.4,0,299.1-0.1c3,0.5,5.7-2.9,4.2-5.6c-0.9-2.1-3.3-2.4-5.3-2.3
		c-97.3,0-194.7,0-292,0C89.7,138.9,86.4,138.5,83.2,139.1 M83.2,164.1c-2.4,0.9-3.3,4.3-1.6,6.3c1,1.3,2.8,1.4,4.3,1.4
		c97.7,0,195.4,0,293.1,0c3.1-0.1,6.3,0.4,9.4-0.4c3.2-1.3,2.9-6.6-0.5-7.3c-3.6-0.5-7.2-0.2-10.9-0.2c-94.7,0-189.3,0-284,0
		C89.7,163.9,86.4,163.5,83.2,164.1z"/>
	<path d="M27.3,150.3c4.4-11.7,14.8-20.7,26.7-24.1c-1,4.9-1.5,9.8-1.5,14.8c0.1,9.2-0.6,18.8,2.5,27.7
		c3.8,12.1,12.8,22.5,24.2,28.1c7.3,3.8,15.6,5.1,23.8,5.2c87.6,0,175.3,0,263,0c7.4,0,14.9,0.1,22-1.9
		c12.8-3.4,23.9-12.5,29.9-24.3c4.1-7.6,5.4-16.2,5.4-24.7c-0.1-8.3,0.5-16.7-1.5-24.8c16.3,4.5,29,19.8,29.4,36.8
		c0.3,21.3,0,42.7,0.1,64c-0.1,8.3,0.6,16.9-2.2,24.9c-3.7,11.5-13,20.9-24.4,24.9c-9.2,3.4-19.1,2.2-28.7,2.4
		c-1-6.5-1.7-13.1-2.9-19.7c-1.3-6.7-7.5-10.9-13.2-13.6c-12.7-6.1-27.1-6.2-40.9-6c-69,0-138.1,0-207.1,0c-12,0.1-24.4,2-35.1,7.8
		c-4.8,2.7-9.5,6.6-10.9,12.2c-1.7,6.4-3,12.9-4.6,19.3c-7.8-0.1-15.7,0.4-23.4-0.7c-14.5-2.2-27.2-13.4-31.4-27.4
		c-1.6-4.9-1.9-10.1-2-15.2c0-21.4,0-42.7,0-64.1C24.5,164.7,24.5,157.2,27.3,150.3z"/>
	<path d="M106.3,256.2c14-6.3,29.7-6.4,44.7-6.2c62,0,124,0,186,0c11.6,0.1,23.5,1.2,34.3,5.8c4,1.9,8.7,4.5,9.5,9.3
		c0.9,4.7,1.4,9.5,2.1,14.2c-96.1,0-192.2,0-288.2,0c0.9-4.7,1.6-9.5,2.6-14.2C98.3,260.6,102.5,258.1,106.3,256.2z"/>
	<path d="M131.4,301.2c4.8-2.6,11.3,1.4,11.3,6.9c0.3,5.4-5.8,7.9-7.1,12.7c-2.6,7.5,1.8,14.8,6.1,20.6c6,7.8,8.4,18.1,7,27.8
		c-2,12.4-7.8,24.1-15.8,33.7c-2.8,3.5-8.4,4-11.6,0.8c-3.2-2.8-3.2-7.9-0.5-11c6.8-8.9,12.6-19.4,12.2-30.9
		c-0.2-6.5-4.6-11.6-7.9-16.8c-5.9-8.8-8.2-20.4-4.2-30.5C123,309.4,126.3,304.1,131.4,301.2z"/>
	<path d="M201.3,301.2c4.8-2.6,11.3,1.4,11.3,6.9c0.3,5.4-5.8,7.8-7.1,12.7c-2.6,7.4,1.8,14.8,6.1,20.5c6,7.9,8.5,18.1,7.1,27.8
		c-2,12.4-7.8,24.1-15.8,33.7c-2.7,3.5-8.4,4.1-11.6,0.9c-3.2-2.8-3.3-7.9-0.6-11c6.9-9.1,12.9-19.9,12.1-31.7
		c-0.9-9.1-8.9-15-11.6-23.3C185.7,325.2,189.6,308.7,201.3,301.2z"/>
	<path d="M271.5,301.2c4.8-2.5,11.2,1.5,11.2,6.9c0.3,5.4-5.7,7.8-7,12.6c-2.6,7.5,1.7,14.8,6.1,20.6c6,7.9,8.5,18.1,7.1,27.9
		c-2,12.4-7.8,24-15.8,33.7c-2.8,3.5-8.4,4.1-11.6,0.9c-3.2-2.8-3.2-7.9-0.6-11c6.8-8.8,12.6-19.4,12.2-30.8
		c-0.2-6.5-4.6-11.7-8-16.9c-5.9-8.8-8.2-20.4-4.1-30.4C263,309.4,266.3,304,271.5,301.2z"/>
	<path d="M341.4,301.2c4.8-2.6,11.3,1.4,11.3,6.9c0.3,4.9-4.7,7.2-6.4,11.2c-2.6,5.3-1.2,11.7,1.8,16.6c3.4,5.3,7.6,10.3,9.4,16.5
		c3.5,10.5,1.2,21.9-3.1,31.9c-3.2,7-7.1,13.9-12.4,19.6c-3.8,3.8-11,1.9-12.6-3.1c-1.5-3.5,0.5-7,2.6-9.7
		c6.3-8.4,11.3-18.4,11-29.1c-0.2-6.5-4.6-11.7-8-16.9c-5.9-8.8-8.2-20.4-4.2-30.4C333,309.4,336.3,304.1,341.4,301.2z"/>
</g>
</svg>
