<?xml version="1.0" encoding="UTF-8" ?>
<!DOCTYPE svg PUBLIC "-//W3C//DTD SVG 1.1//EN" "http://www.w3.org/Graphics/SVG/1.1/DTD/svg11.dtd">
<svg width="650pt" height="288pt" viewBox="0 0 650 288" version="1.1" xmlns="http://www.w3.org/2000/svg">
<g id="#202020ff">
<path fill="#202020" opacity="1.00" d=" M 448.84 2.84 C 468.61 -2.28 487.11 9.17 505.03 15.95 C 543.74 32.40 581.50 50.96 618.99 70.03 C 630.83 76.18 642.71 85.15 646.38 98.66 C 649.04 108.00 642.86 116.78 634.88 120.84 C 621.02 126.30 606.62 130.23 592.70 135.52 C 586.32 137.13 583.14 143.93 576.91 145.88 C 481.09 178.16 385.27 210.52 289.33 242.40 C 278.53 246.67 266.43 251.87 255.00 247.04 C 223.61 256.60 192.44 267.07 161.28 277.46 C 149.14 280.86 133.71 289.33 123.01 278.00 C 101.58 256.10 81.72 232.51 61.95 209.06 C 45.23 188.60 27.23 168.24 17.83 143.14 C 9.77 123.20 1.49 102.20 3.38 80.36 C 4.78 76.06 6.60 70.85 11.34 69.37 C 48.88 63.17 86.58 57.76 124.17 52.02 C 125.46 52.19 126.79 52.05 127.99 51.50 C 146.34 48.53 164.78 45.65 183.17 43.02 C 184.46 43.19 185.79 43.05 186.99 42.50 C 273.68 29.20 360.42 15.92 447.16 3.01 C 447.58 2.97 448.42 2.88 448.84 2.84 M 452.40 3.54 C 310.54 25.16 168.65 46.68 26.80 68.31 C 31.89 70.02 36.41 72.87 39.59 77.36 C 62.29 104.93 84.55 132.81 105.19 161.84 C 129.30 191.60 153.27 224.82 158.22 264.06 C 195.24 252.84 232.13 240.95 268.87 228.75 C 269.35 201.25 250.56 178.31 232.91 159.07 C 255.25 151.84 278.25 146.82 301.00 141.00 C 384.09 120.29 467.08 99.19 550.10 78.26 C 554.97 76.86 558.10 81.27 561.99 83.03 C 576.97 92.39 590.48 107.52 591.21 126.00 C 607.82 120.72 624.72 116.04 640.97 109.85 C 640.61 93.01 627.24 78.64 612.98 71.03 C 576.85 52.13 540.29 34.20 502.70 18.31 C 486.47 12.26 470.61 0.07 452.40 3.54 M 19.29 84.27 C 13.26 86.59 12.48 94.51 13.00 100.00 C 15.23 117.72 22.93 134.28 31.11 149.95 C 41.00 166.74 54.94 180.74 67.41 195.61 C 84.84 215.80 103.61 234.73 121.72 254.28 C 125.10 257.67 128.86 261.91 134.01 262.07 C 127.33 225.08 100.92 196.50 81.18 165.87 C 64.56 142.77 48.36 119.37 31.71 96.27 C 27.93 92.27 24.96 85.36 19.29 84.27 M 639.39 112.37 C 624.34 117.49 609.08 121.95 593.92 126.73 C 589.57 126.68 590.00 131.98 589.02 135.02 C 604.34 130.24 619.59 125.14 634.65 119.58 C 636.84 118.26 640.65 113.23 639.39 112.37 M 574.27 125.30 C 573.00 126.11 569.12 126.17 570.69 128.30 C 573.54 133.64 570.50 139.75 569.21 145.19 C 577.00 143.03 575.06 129.31 574.27 125.30 M 568.27 127.30 C 566.87 127.80 565.46 128.26 564.20 129.03 C 567.36 134.82 564.41 141.22 563.02 147.11 C 571.09 145.44 569.00 131.18 568.27 127.30 M 561.29 129.36 C 560.77 129.57 559.73 129.98 559.21 130.19 C 561.22 136.72 558.91 143.25 556.10 149.16 C 564.25 148.04 564.50 131.18 561.29 129.36 M 268.95 230.97 C 231.91 242.22 195.06 254.23 158.26 266.26 C 157.60 269.91 158.28 273.93 156.15 277.17 C 188.60 267.38 220.71 256.34 253.01 246.06 C 260.89 245.06 270.05 240.17 268.95 230.97 Z" />
<path fill="#202020" opacity="1.00" d=" M 48.95 150.34 C 44.66 149.35 47.22 136.15 48.80 141.60 C 48.40 144.51 48.22 147.47 48.95 150.34 Z" />
<path fill="#202020" opacity="1.00" d=" M 49.39 151.15 C 49.48 151.30 49.66 151.58 49.75 151.73 C 49.66 151.58 49.48 151.30 49.39 151.15 Z" />
<path fill="#202020" opacity="1.00" d=" M 59.06 156.11 C 63.24 156.11 58.85 169.12 56.87 162.20 C 60.69 164.35 58.88 158.79 59.06 156.11 Z" />
<path fill="#202020" opacity="1.00" d=" M 74.22 169.15 C 80.35 171.21 82.78 181.59 81.80 187.76 C 80.41 190.49 76.47 190.87 75.53 187.39 C 70.99 182.74 68.92 173.94 74.22 169.15 Z" />
<path fill="#202020" opacity="1.00" d=" M 91.31 190.31 C 95.84 191.39 103.84 212.43 93.22 210.85 C 89.13 205.84 84.30 194.33 91.31 190.31 Z" />
</g>
<g id="#44444366">
<path fill="#444443" opacity="0.40" d=" M 447.16 3.01 C 447.60 1.42 448.16 1.37 448.84 2.84 C 448.42 2.88 447.58 2.97 447.16 3.01 Z" />
</g>
<g id="#f0f0f0ff">
</g>
<g id="#3f3f3f4d">
</g>
<g id="#45444456">
</g>
<g id="#1c1c1cff">
<path fill="#1c1c1c" opacity="1.00" d=" M 48.95 150.34 C 48.22 147.47 48.40 144.51 48.80 141.60 C 52.16 146.43 56.32 150.88 59.06 156.11 C 58.88 158.79 60.69 164.35 56.87 162.20 C 54.03 159.12 52.31 155.08 49.75 151.73 C 49.66 151.58 49.48 151.30 49.39 151.15 L 48.95 150.34 Z" />
</g>
</svg>
