<?xml version="1.0" encoding="utf-8"?>
<!-- Generator: Adobe Illustrator 21.1.0, SVG Export Plug-In . SVG Version: 6.00 Build 0)  -->
<svg version="1.1" id="Laag_1" xmlns="http://www.w3.org/2000/svg" xmlns:xlink="http://www.w3.org/1999/xlink" x="0px" y="0px"
	 viewBox="0 0 950 592" style="enable-background:new 0 0 950 592;" xml:space="preserve">
<style type="text/css">
	.st0{fill:#210B0B;}
	.st1{fill:#1C0909;}
	.st2{fill:#1D1D1B;}
	.st3{fill:#FFFFFF;}
	.st4{fill:#DADADA;}
</style>
<g id="_x23_ffffffff">
</g>
<g id="_x23_000000ff">
	<path d="M602.9,4.9c11.3-5.2,24.2-4.2,36-1.8c20.3,4.6,39.2,14,56.8,25.1c66.1,41.9,131,85.9,194.4,131.9
		c13.3,9.8,27.4,18.9,38.1,31.6c7,7.4,12.9,15.9,16.9,25.3c3,7.4,4.5,16.2,1,23.7c-2.1,4.8-6.5,7.9-11,10.3
		c-9.6,6.2-19.7,11.5-29.5,17.4c-19.7,11.3-39.3,22.9-59.2,33.9c-0.9,4.4-2.7,8.8-6,12c-2.8,2.4-6.1,4-9.2,5.9
		C731,378.1,630.9,436,530.6,493.7c-6.6,3.9-13.5,7.3-19.7,11.8c-15,8.4-29.6,17.4-44.5,25.9c-6.8,4.8-15.5,5.7-23.6,4.6
		c-27,15.2-53.6,30.9-80.4,46.3c-5.3,2.1-9.8,6.1-15.6,7.1c-11.2,2.1-22.7-0.8-33-5.2c-50.1-21.2-99.4-44.1-148.3-68
		c-14.1-7.2-28.2-14.4-42.3-21.6c-13.6-7-27.4-13.6-40.2-22.1c-25.2-16.5-47.9-37.2-64.9-62.1c-7.8-11.8-14.7-24.9-15.9-39.2
		c-0.9-10.2,3.3-21.1,12.1-26.8c5.7-3.3,11-7.2,16.9-10.2C205.8,233.6,380.1,133,554.5,32.3C570.6,23.1,586.5,13.5,602.9,4.9
		 M605,6.7c15.7-0.6,31.2,3.9,45.6,9.9c17.2,7.1,32.8,17.4,48.4,27.5c66.5,42.4,131.5,87.2,195.1,133.8
		c14.7,11.2,28.2,24.7,36.9,41.1c4.5,8.8,7.9,19.1,4.7,28.9c6.2-2,9.8-8.6,10.1-14.8c0.5-9-3.3-17.6-7.9-25.1
		c-5-7.8-10.8-15.1-17.6-21.3c-9.4-9.8-21-17.1-31.8-25.2C825.8,116,761.6,72.3,696,30.9c-17.9-11.4-37.2-21.3-58-25.8
		C627.1,3.5,615.3,2,605,6.7 M601.5,9.6c-6.3,0.9-11.7,4.6-17.1,7.7c-179,103.3-358,206.6-536.9,310c-3.3,2-7,3.6-9.9,6.3
		c6.2-0.1,12.4-0.3,18.5,0.9c23.3,4,44.6,15.1,64.3,27.9c67.6,42.9,133.9,88,198.6,135.1c14.7,10.2,28.7,21.9,39.1,36.5
		c3.2,4.7,7.2,8.9,8.7,14.5c2.2,5.1,4.1,10.3,4.5,15.9c29.4-16.7,58.7-33.7,88-50.8c-0.3-11-6.3-20.6-12.2-29.5
		c-7.3-9.7-15.5-18.7-25-26.2c-5.8-5.3-12.8-9.2-18.6-14.5c58.9-34,117.9-68,176.8-102.1c70-40.5,140.2-80.8,210.1-121.5
		c13.2,9.5,26.9,18.8,37.2,31.6c5.3,5.8,9.9,12.1,13.1,19.3c3.3,5.8,5.5,12.2,6.5,18.9c12-6.2,23.4-13.6,35.2-20.2
		c17.5-10.1,35.1-20.3,52.6-30.3c-0.7-13-8.3-24.2-15.8-34.3c-8-10-17.3-18.9-27.7-26.4C825.6,130.1,758.2,83.6,689,40
		c-15.4-10.1-31.5-19.3-48.9-25.4C627.8,10.4,614.5,7.4,601.5,9.6 M802.2,232.4c1.8,2.4,4.1,4.2,6.8,5.5
		C807.3,235.3,804.9,233.4,802.2,232.4 M848.8,292.8c-2.8,1.1-1.6,4.6-1.9,6.9c26.9-15.4,53.6-30.9,80.4-46.4
		c3.8-1.9,6.5-5.6,7.2-9.8C905.8,259.7,877.4,276.4,848.8,292.8 M821.2,250.2c3,5.6,7.7,10.1,11,15.5c3.6,5.1,5.7,11,9.1,16.1
		c-2.4-9.6-8.6-17.8-14.4-25.7C825.3,253.9,823.4,251.8,821.2,250.2 M813,301.8c2.6,7.8,3.2,16.5,0.1,24.3c0.2,0.2,0.7,0.7,0.9,1
		c2.2-0.9,4.9-1.9,5.7-4.3c2.9-7.1,2.2-15.3,0-22.5c-0.5-1.9-2.8-3.6-4.6-2.4C813.6,298.6,813.5,300.4,813,301.8 M804.2,308
		c1,4.9,2.3,9.8,1.7,14.9c-0.1,3.3-2,6.3-1.5,9.6c2-1,4-2,6-3.1c2.2-6.3,2.8-13.1,1.3-19.6c-0.6-2.8-1-6.8-4.5-7.2
		C804.7,303.3,803.6,305.8,804.2,308 M795,313.9c2.1,7.4,2.6,15.4-0.3,22.6c1.6,2.2,4.2-1.2,6.2-1.7c3.1-7.7,2.9-16.4,0.2-24.2
		c-0.4-1.5-2-2.1-3-3C795.8,308.9,793.8,311.3,795,313.9 M36.5,336.7c-3.6,0.6-7.1,1.8-10.3,3.7c-5.5,3.3-11.7,5.9-15.9,11
		c-5.7,6.8-6.6,16.3-5,24.7c3.5,17.7,13.4,33.2,24.8,46.9c18.6,22.2,41.3,41,66.5,55.4c32.1,17.4,65.1,33.1,97.9,49.1
		c36,17,72,33.9,108.6,49.5c7.8,3.2,15.5,7.1,23.8,9.1c8.3,1.5,17.4,2.8,25.2-1.2c4-2.2,8.1-4.4,11.9-7c5.1-3.9,5.4-11,4.6-16.8
		c-2.2-11-7.8-21-14.8-29.7c-10.8-14-24.9-24.7-39.3-34.7c-58.8-42.8-118.8-83.9-180-123.1c-16.3-10.4-32.3-21.3-50.2-28.6
		C69.1,339,52.8,334,36.5,336.7 M374,567c-3.4,1.2-2.8,5.2-3.9,8c27.1-15.6,54.1-31.2,81.1-46.8c3.8-2.1,6.7-5.6,7.5-9.9
		C430.3,534.2,402.3,550.8,374,567z"/>
	<path d="M34.6,356c1.7-0.8,3.6-1.5,5.5-1.2c7.2,0.7,14.4,1.6,21.2,4c16,5,30.8,12.9,44.9,22c70,44.2,138.2,91.2,205.1,140
		c13.2,9.6,25.5,21.1,33.4,35.5c2.1,4.3,5,9.6,2.6,14.4c-0.5,0.2-1.5,0.6-2,0.8c0.3-1.6,0.5-3.2,0.8-4.8c-8.3,4.8-18.4,2.3-26.8-0.9
		c-18.3-7.6-36.5-15.5-54.6-23.6c-5-2.4-10.4-4-15.3-6.6c-19.8-9.1-39.6-18.3-59.2-27.9c-14-7-28.3-13.4-42-21
		c-16.3-8.2-32.7-16.4-48.7-25.1c-25.1-14.5-47.9-33.5-65.3-56.8c-5.4-7.6-10.5-15.7-13.1-24.8c-1.6-5.5-1.3-12.4,3.4-16.4
		c4.8-4.6,11.7-5.5,18-6.1C39.8,357.5,36.8,358,34.6,356 M26.3,366.3c-3.6,4-3,9.9-1.5,14.7c2.9,9,8.2,17,13.9,24.5
		c19.8,25.4,46,45.7,74.8,60c62.9,32.6,126.9,63.2,192,91.1c8.2,3.4,16.2,7.6,25.1,9.2c5.1,0.8,10.9,1.1,15.1-2.5
		c-2.4-6.9-6.5-13.1-11.1-18.8c-9.9-12.3-22.9-21.4-35.6-30.4c-56.6-41.2-114.6-80.5-173.4-118.4c-13.8-8.6-27.2-18.1-42.1-24.9
		C70.6,364.9,57,360.4,43,360.4C37,360.4,30.6,361.9,26.3,366.3z"/>
	<path d="M136.5,434.5c1.4-0.8,2.8,0.2,3.9,0.9c7.3,4.8,14.4,9.8,21.9,14.4c2.9,2,6.3,3.5,8.7,6.2c2.3,2.9,1.5,6.8,1.3,10.1
		c-1.9,1-3.9,2.3-6.1,2.5c-6.6-3.5-12.5-8.2-19-12c-3.2-2.3-7.5-3.5-9.5-7.1c-1.6-3-3.8-6-3.4-9.5
		C134.5,438,134.3,435.3,136.5,434.5 M141.1,438.9c-0.1,3.1,1.5,6.1,3.6,8.3c6.5,4.6,13.5,8.4,20,13c1.7,0.9,3.9,3.2,5.6,1.1
		c0.5-3.4-2.2-5.8-5.1-6.8C157.4,449.1,149.3,443.9,141.1,438.9z"/>
	<path d="M208.4,469.7c2.6-1.1,5.4,0,7.8,1.2c5.3,3,9.2,8.1,11.4,13.7c1.8,4.5,2.7,9.9,0.4,14.4c-2,3.3-6.4,4.5-9.9,2.9
		c-8.1-3.7-13.4-12-14.8-20.6C202.6,477,203.9,471.3,208.4,469.7 M211.5,476.5c-1.8,0.6-2,2.9-2.2,4.5c0.4,5.2,3.1,10.4,7.4,13.3
		c1.9,1.3,5.1,1.8,6.3-0.6c1.9-4.6-0.8-9.4-3.4-13.2C217.7,478.1,214.8,475.4,211.5,476.5z"/>
	<path d="M253.2,497.1c3.6-0.3,6.8,2,9.2,4.4c3.8,4.5,7,10.8,5,16.8c-1.9,4.8-8.2,4.5-12.2,2.5c-4.9-3.3-8.1-9-8.4-14.9
		C247,502.1,249.5,498.2,253.2,497.1 M250.4,502.1c-2.8,3.4-0.9,8.2,1,11.6c1.7,2.4,3.1,5.9,6.4,6.2c2.1,0.5,4.7-0.4,5.1-2.8
		c0.7-4.7-1.6-9.2-4.6-12.7C256.4,502.4,253.2,500.5,250.4,502.1z"/>
</g>
<g id="_x23_210b0bff">
	<path class="st0" d="M802.2,232.4c2.8,1.1,5.2,2.9,6.8,5.5C806.2,236.6,803.9,234.7,802.2,232.4z"/>
</g>
<g id="_x23_1c0909ff">
	<path class="st1" d="M821.2,250.2c2.2,1.7,4.1,3.7,5.7,6c5.8,7.9,12,16,14.4,25.7c-3.4-5.1-5.5-11-9.1-16.1
		C829,260.2,824.3,255.8,821.2,250.2z"/>
</g>
<g id="_x23_007cffff">
	<g id="XMLID_1_">
		<g>
			<path class="st2" d="M557.6,289.9c0.4,2.6-2.3,3.5-4,4.6c-4.6,2.5-9,5.4-13.7,7.7c-3.4,1.6-7.3-0.6-8.1-4.2
				c5-3.9,10.8-6.6,16.2-10C551,285.8,556,286.1,557.6,289.9z"/>
		</g>
	</g>
	<path class="st3" d="M250.4,502.1c2.8-1.6,6,0.3,7.9,2.4c3,3.4,5.3,8,4.6,12.7c-0.3,2.4-3,3.3-5.1,2.8c-3.3-0.4-4.7-3.8-6.4-6.2
		C249.4,510.3,247.6,505.4,250.4,502.1z"/>
</g>
<g id="_x23_dadadaff">
	<path class="st4" d="M623.4,472.9c1.5-0.4,1.9,0.1,1.4,1.5C623.3,474.8,622.8,474.3,623.4,472.9z"/>
</g>
</svg>
